<?xml version="1.0" standalone="no"?><!DOCTYPE svg PUBLIC "-//W3C//DTD SVG 1.1//EN"
        "http://www.w3.org/Graphics/SVG/1.1/DTD/svg11.dtd">
<svg t="1608736655107" class="icon" viewBox="0 0 1024 1024" version="1.1" xmlns="http://www.w3.org/2000/svg"
     p-id="19205" xmlns:xlink="http://www.w3.org/1999/xlink" width="200" height="200">
    <defs>
        <style type="text/css"></style>
    </defs>
    <path d="M721 1024H303C135.658 1024 0 888.342 0 721V303C0 135.658 135.658 0 303 0h418c167.342 0 303 135.658 303 303v418c0 167.342-135.658 303-303 303z"
          fill="#F18E40" p-id="19206"></path>
    <path d="M491.541 563.007c46.141-77.98 142.006-108.954 223.916-72.398V250.88c0-16.166-12.663-29.116-28.256-29.116h-442.04c-15.454 0-28.26 13.019-28.26 29.116v470.872c0.143 12.09 6.008 23.464 15.74 30.475 0.999 1.501 2.144 2.791 3.504 4.006l42.567 38.56c5.149 4.579 11.73 7.011 18.601 6.938a27.667 27.667 0 0 0 18.671-7.011l36.699-33.191 36.268 32.905a27.393 27.393 0 0 0 18.531 6.94c6.868 0.071 13.518-2.431 18.741-7.01l36.343-32.909 40.562 32.909c8.443 6.937 19.959 8.512 29.905 4.076-69.822-56.801-87.636-157.529-41.492-235.433zM310.618 333.652H535.32c12.38 0 22.464 9.086 22.464 20.316 0 11.231-10.084 20.316-22.464 20.316H310.618c-12.376 0-22.464-9.085-22.464-20.316 0-11.16 10.088-20.316 22.464-20.316z m89.923 284.868h-89.923c-12.376 0-22.464-9.085-22.464-20.316 0-11.233 10.088-20.319 22.464-20.319h89.853c12.376 0 22.461 9.086 22.461 20.319 0.073 11.23-10.014 20.316-22.391 20.316z m-89.923-122.046c-12.376 0-22.464-9.086-22.464-20.316 0-11.231 10.088-20.316 22.464-20.316H535.32c12.38 0 22.464 9.085 22.464 20.316 0 11.23-10.084 20.316-22.464 20.316H310.618z m0 0"
          fill="#FFFFFF" p-id="19207"></path>
    <path d="M659.514 516.793C578.03 516.793 512 580.533 512 659.225S578.031 801.66 659.514 801.66c81.48 0 147.514-63.742 147.514-142.435 0.001-78.619-66.033-142.432-147.514-142.432z m69.608 164.18c6.794 0 12.232 5.296 12.232 11.803 0 6.511-5.508 11.807-12.232 11.807h-49.148v27.54c0 6.581-5.509 11.876-12.307 11.876-6.794 0-12.303-5.296-12.303-11.876v-27.54h-49.218c-6.797 0-12.232-5.296-12.232-11.807 0-6.507 5.508-11.803 12.232-11.803h49.218v-23.607h-49.148c-6.511-0.359-11.59-5.508-11.59-11.803 0-6.298 5.079-11.447 11.59-11.807h29.762l-31.837-30.547c-2.288-2.219-3.647-5.222-3.647-8.369 0-3.148 1.285-6.151 3.647-8.37 4.792-4.649 12.593-4.649 17.385 0l45.069 43.354 45.141-43.354c4.793-4.579 12.519-4.579 17.312 0 2.291 2.219 3.65 5.222 3.65 8.37 0 3.147-1.289 6.151-3.65 8.369l-31.69 30.547h31.763c4.579-0.356 9.012 1.789 11.374 5.582a11.416 11.416 0 0 1 0 12.376c-2.431 3.79-6.794 5.939-11.374 5.578h-49.148v23.68h49.149z m0 0"
          fill="#FFFFFF" p-id="19208"></path>
</svg>