<?xml version="1.0" standalone="no"?><!DOCTYPE svg PUBLIC "-//W3C//DTD SVG 1.1//EN"
        "http://www.w3.org/Graphics/SVG/1.1/DTD/svg11.dtd">
<svg t="1608736604190" class="icon" viewBox="0 0 1024 1024" version="1.1" xmlns="http://www.w3.org/2000/svg"
     p-id="17757" xmlns:xlink="http://www.w3.org/1999/xlink" width="200" height="200">
    <defs>
        <style type="text/css"></style>
    </defs>
    <path d="M944 767.552c-29.44 51.029333-74.026667 80.448-99.626667 65.706667-20.48-11.861333-21.973333-48.768-6.613333-89.322667l-98.346667-56.704a296.064 296.064 0 0 1-132.693333 101.781333l12.288 45.845334c32-1.92 57.301333 7.146667 61.994667 24.448 6.144 22.741333-25.792 50.965333-71.317334 63.04s-87.466667 3.434667-93.610666-19.2c-4.672-17.237333 12.629333-37.589333 41.088-51.712l-12.224-45.632a297.002667 297.002667 0 0 1-165.952-21.824l-22.656 39.253333c25.088 21.461333 37.482667 46.506667 28.309333 62.378667-11.776 20.416-54.421333 17.856-95.232-5.717334s-64.362667-59.2-52.565333-79.616c8.704-15.104 34.346667-17.557333 63.637333-8.298666l23.04-39.914667a297.322667 297.322667 0 0 1-102.4-132.693333l-45.952 12.309333c4.266667 43.008-6.826667 78.122667-29.674667 84.245333-28.458667 7.616-63.872-32.32-79.125333-89.237333s-4.544-109.205333 23.914667-116.821333c23.189333-6.229333 50.858667 19.456 68.608 59.925333l45.589333-12.224a317.461333 317.461333 0 0 1 22.741333-166.058667l-51.818666-29.866666c-19.818667 21.546667-42.197333 31.722667-56.597334 23.466666-19.477333-11.178667-17.066667-51.733333 5.568-90.56s56.618667-61.248 76.096-50.069333c14.677333 8.405333 16.853333 33.514667 7.381334 61.994667l48.810666 28.181333a331.285333 331.285333 0 0 1 130.133334-119.232l-18.730667-69.888c-43.456 4.565333-79.04-6.549333-85.333333-29.568-7.616-28.458667 32.341333-63.872 89.237333-79.125333s109.205333-4.544 116.842667 23.914666c6.165333 23.018667-19.093333 50.453333-59.029334 68.266667l17.429334 65.066667a252.693333 252.693333 0 0 1 181.952 28.608l9.386666-16.256c-22.656-20.714667-33.344-44.138667-24.64-59.242667 11.797333-20.416 54.421333-17.856 95.168 5.717333s64.426667 59.2 52.693334 79.616c-9.173333 15.872-37.12 17.664-68.266667 6.677334l-11.989333 20.736a353.194667 353.194667 0 0 1 96.426666 144.021333l68.693334-18.389333c-1.706667-29.866667 7.04-53.674667 23.253333-58.090667 21.76-5.866667 48.64 24.576 60.16 67.989333s3.2 83.328-18.346667 89.194667c-16.213333 4.266667-34.986667-11.285333-48.426666-37.312l-69.12 18.538667a298.666667 298.666667 0 0 1-22.613334 166.208l97.92 56.512c27.52-34.325333 60.8-51.882667 81.493334-39.893334 25.685333 14.506667 22.485333 67.818667-6.954667 118.826667z m-218.24-317.653333a234.666667 234.666667 0 1 0-166.016 287.402666 234.794667 234.794667 0 0 0 166.016-287.402666z"
          fill="#5C8EF3" p-id="17758"></path>
    <path d="M640 640c-42.112 42.112-103.125333 38.72-118.912 22.912s-8.533333-87.466667 33.578667-129.578667 103.125333-38.72 118.912-22.912 8.533333 87.466667-33.578667 129.578667z m-256 0c-30.613333-17.664-42.922667-48.704-34.133333-64s46.144-17.664 76.8 0 42.922667 48.704 34.133333 64-46.186667 17.664-76.8 0z m-7.616-143.466667c-23.466667 1.6-43.2-6.634667-44.010667-18.389333s17.6-22.592 41.109334-24.192 43.221333 6.634667 44.032 18.389333-17.621333 22.592-41.130667 24.192z"
          fill="#EB9E52" p-id="17759"></path>
</svg>