<?xml version="1.0" standalone="no"?><!DOCTYPE svg PUBLIC "-//W3C//DTD SVG 1.1//EN"
        "http://www.w3.org/Graphics/SVG/1.1/DTD/svg11.dtd">
<svg t="1608736328898" class="icon" viewBox="0 0 1024 1024" version="1.1" xmlns="http://www.w3.org/2000/svg"
     p-id="10360" xmlns:xlink="http://www.w3.org/1999/xlink" width="200" height="200">
    <defs>
        <style type="text/css"></style>
    </defs>
    <path d="M384.99328 394.09152l242.77504 242.80576-232.86272 232.86272c-33.536 33.50528-77.46048 50.28864-121.38496 50.28864s-87.84896-16.78336-121.38496-50.28864c-67.072-67.04128-67.072-175.76448 0-242.80576l232.8576-232.86272z"
          fill="#5FCEFF" p-id="10361"></path>
    <path d="M846.848 175.0016c58.2144 58.2144 58.2144 152.9344 0 211.1488l-219.0848 219.0848-211.1488-211.1488 219.0848-219.0848c28.16-28.2112 65.6896-43.7248 105.5744-43.7248 39.8848 0 77.3632 15.5136 105.5744 43.7248z m-53.76 42.7008c3.9936-11.6736-2.2528-24.4224-13.9264-28.416a133.248 133.248 0 0 0-78.7456-2.4064 22.38976 22.38976 0 0 0-16.4864 21.5552c0 1.9456 0.256 3.9424 0.8192 5.9392 3.2256 11.9296 15.5648 18.944 27.4944 15.6672 17.3568-4.7616 35.4816-4.1984 52.3776 1.5872 2.4064 0.8192 4.864 1.2288 7.2704 1.2288 9.5744 0 18.0736-6.0928 21.1968-15.1552z m-151.6544 66.816a22.34368 22.34368 0 0 0 0-31.6416c-8.704-8.704-22.8864-8.704-31.6416 0l-94.1056 94.1056a22.41024 22.41024 0 0 0 15.8208 38.2464c5.9392 0 11.6224-2.3552 15.8208-6.5536l94.1056-94.1568z"
          fill="#FFFFFF" p-id="10362"></path>
    <path d="M878.4896 143.36c75.6736 75.6736 75.6736 198.8096 0 274.432l-467.7632 467.8144c-36.7104 36.608-85.4016 56.832-137.216 56.832-51.7632 0-100.5056-20.1728-137.216-56.832-36.6592-36.6592-56.832-85.4016-56.832-137.2672 0-51.8144 20.1728-100.5568 56.832-137.216L604.0576 143.36c36.608-36.6592 85.3504-56.832 137.216-56.832s100.5568 20.1728 137.216 56.832z m-31.6416 242.7904c58.2144-58.2144 58.2144-152.9344 0-211.1488-28.2112-28.2112-65.6896-43.7248-105.5744-43.7248-39.8848 0-77.4144 15.5136-105.5744 43.7248L416.6144 394.0864l211.1488 211.1488 219.0848-219.0848z m-467.7632 467.7632l217.0368-217.0368-211.1488-211.1488-217.0368 217.0368c-28.2112 28.2112-43.7248 65.6896-43.7248 105.5744 0 39.8848 15.5136 77.4144 43.7248 105.5744 28.2624 28.2112 65.7408 43.776 105.5744 43.776s77.3632-15.5648 105.5744-43.776z"
          fill="#4F46A3" p-id="10363"></path>
    <path d="M779.1616 189.2864c11.6736 3.9936 17.92 16.7424 13.9264 28.416a22.43072 22.43072 0 0 1-21.1968 15.1552c-2.4064 0-4.864-0.4096-7.2704-1.2288-16.896-5.7856-35.0208-6.3488-52.3776-1.5872-11.9296 3.2768-24.2688-3.7376-27.4944-15.6672-0.5632-1.9968-0.8192-3.9936-0.8192-5.9392 0-9.8304 6.5536-18.8416 16.4864-21.5552 26.0608-7.168 53.248-6.2976 78.7456 2.4064zM641.4336 252.8768a22.34368 22.34368 0 0 1 0 31.6416L547.328 378.6752c-4.1984 4.1984-9.8816 6.5536-15.8208 6.5536a22.41024 22.41024 0 0 1-15.8208-38.2464l94.1056-94.1056c8.7552-8.704 22.9376-8.704 31.6416 0z"
          fill="#4F46A3" p-id="10364"></path>
</svg>