<?xml version="1.0" standalone="no"?><!DOCTYPE svg PUBLIC "-//W3C//DTD SVG 1.1//EN" "http://www.w3.org/Graphics/SVG/1.1/DTD/svg11.dtd"><svg t="1608736303107" class="icon" viewBox="0 0 1024 1024" version="1.1" xmlns="http://www.w3.org/2000/svg" p-id="10223" xmlns:xlink="http://www.w3.org/1999/xlink" width="200" height="200"><defs><style type="text/css"></style></defs><path d="M839.177447 363.139409a22.327171 22.327171 0 0 0-7.288939-15.620068L696.956823 225.372071a22.378321 22.378321 0 0 0-15.01905-5.789592H343.894053a22.384715 22.384715 0 0 0-15.019051 5.789592l-134.931685 122.150467a22.327171 22.327171 0 0 0-7.288938 15.620068c-0.028772 0.463551-0.070332 0.923905-0.070332 1.393849v607.903893a22.378321 22.378321 0 0 0 22.378321 22.378321h607.903893a22.378321 22.378321 0 0 0 22.378321-22.378321V364.536455c0.003197-0.469945-0.038363-0.930299-0.067135-1.397046zM352.519297 264.339121h320.793231l85.491581 77.393825H267.027717l85.49158-77.393825z m441.97184 685.722906H231.343886V386.914776h563.147251v563.147251zM343.894053 201.810896h338.04372a22.378321 22.378321 0 0 0 22.378321-22.378321V57.282108a22.378321 22.378321 0 0 0-22.378321-22.378321H343.894053a22.378321 22.378321 0 0 0-22.378321 22.378321v122.150467a22.378321 22.378321 0 0 0 22.378321 22.378321z m22.378321-122.150467h293.287078v77.393825h-293.287078V79.660429z" fill="#009FE8" p-id="10224"></path><path d="M320.198608 757.455015h107.582179v107.58218a22.378321 22.378321 0 0 0 22.378321 22.378321h122.965677a22.378321 22.378321 0 0 0 22.378321-22.378321v-107.58218h107.58218a22.378321 22.378321 0 0 0 22.378321-22.378321V612.111017a22.378321 22.378321 0 0 0-22.378321-22.378321h-107.58218v-107.582179a22.378321 22.378321 0 0 0-22.378321-22.378321h-122.965677a22.378321 22.378321 0 0 0-22.378321 22.378321v107.582179h-107.582179a22.378321 22.378321 0 0 0-22.378321 22.378321v122.965677a22.378321 22.378321 0 0 0 22.378321 22.378321z m22.378321-122.968873h107.582179a22.378321 22.378321 0 0 0 22.378321-22.378321v-107.58218h78.209035v107.58218a22.378321 22.378321 0 0 0 22.378321 22.378321h107.58218v78.209035h-107.58218a22.378321 22.378321 0 0 0-22.378321 22.378321v107.582179h-78.209035v-107.582179a22.378321 22.378321 0 0 0-22.378321-22.378321h-107.582179v-78.209035z" fill="#009FE8" p-id="10225"></path></svg>