<?xml version="1.0" standalone="no"?><!DOCTYPE svg PUBLIC "-//W3C//DTD SVG 1.1//EN"
        "http://www.w3.org/Graphics/SVG/1.1/DTD/svg11.dtd">
<svg t="1608740384104" class="icon" viewBox="0 0 1024 1024" version="1.1" xmlns="http://www.w3.org/2000/svg"
     p-id="37447" xmlns:xlink="http://www.w3.org/1999/xlink" width="200" height="200">
    <defs>
        <style type="text/css"></style>
    </defs>
    <path d="M318.93504 319.39584H225.55648V225.83296h93.37856v93.56288z m0 478.7712H225.55648v-93.56288h93.37856v93.56288z m479.50848-478.7712h-93.37856V225.83296h93.37856v93.56288z"
          fill="#F79C42" p-id="37448"></path>
    <path d="M389.48864 463.36H155.32032A73.52832 73.52832 0 0 1 81.92 389.86752V155.41248A73.52832 73.52832 0 0 1 155.32032 81.92h234.16832a73.53344 73.53344 0 0 1 73.40544 73.49248v234.45504A73.53344 73.53344 0 0 1 389.48864 463.36zM155.32032 150.80448a4.608 4.608 0 0 0-4.608 4.608v234.45504a4.608 4.608 0 0 0 4.608 4.608h234.16832a4.608 4.608 0 0 0 4.608-4.608V155.41248a4.608 4.608 0 0 0-4.608-4.608H155.32032z m234.16832 790.65088H155.32032A73.52832 73.52832 0 0 1 81.92 867.95776v-234.45504a73.53344 73.53344 0 0 1 73.40032-73.49248h234.16832a73.53344 73.53344 0 0 1 73.40544 73.49248v234.45504a73.53344 73.53344 0 0 1-73.40544 73.4976z m-234.16832-312.56064a4.608 4.608 0 0 0-4.608 4.608v234.45504a4.608 4.608 0 0 0 4.608 4.608h234.16832a4.608 4.608 0 0 0 4.608-4.608v-234.45504a4.608 4.608 0 0 0-4.608-4.608H155.32032z m642.92864-71.05536v97.92h-100.32128v-97.92h-141.51168v141.69088h141.51168v51.2h-45.39392v45.45536h-96.11776V942.08h96.11776v-96.37376h100.32128v-94.976h45.39392V671.232h142.848v-113.39264h-142.848z m45.67552 288.00512h-91.06944V942.08H940.032v-191.34976h-96.10752V845.824z m24.74496-382.464h-234.1632a73.52832 73.52832 0 0 1-73.40032-73.49248V155.41248A73.52832 73.52832 0 0 1 634.50624 81.92h234.1632A73.53344 73.53344 0 0 1 942.08 155.41248v234.45504A73.52832 73.52832 0 0 1 868.66944 463.36z m-234.1632-312.576a4.608 4.608 0 0 0-4.608 4.608v234.45504a4.608 4.608 0 0 0 4.608 4.608h234.1632a4.608 4.608 0 0 0 4.608-4.608V155.41248a4.608 4.608 0 0 0-4.608-4.608h-234.1632z"
          fill="#5288F5" p-id="37449"></path>
</svg>