<?xml version="1.0" standalone="no"?><!DOCTYPE svg PUBLIC "-//W3C//DTD SVG 1.1//EN" "http://www.w3.org/Graphics/SVG/1.1/DTD/svg11.dtd"><svg t="1608732370453" class="icon" viewBox="0 0 1024 1024" version="1.1" xmlns="http://www.w3.org/2000/svg" p-id="5673" xmlns:xlink="http://www.w3.org/1999/xlink" width="200" height="200"><defs><style type="text/css"></style></defs><path d="M372.998 94a29.753 29.753 0 0 1 14.189 3.551l255.132 97.547 230.873-88.27a52.917 52.917 0 0 1 18.123-3.485l0.775-0.005c29.221 0 52.91 23.685 52.91 52.903v593.937c0 19.747-11 37.851-28.528 46.951L663.39 928.524c-8.761 7.655-21.815 10.153-33.53 4.072L372.774 799.122l-223.48 116.026a52.916 52.916 0 0 1-23.634 5.947l-0.749 0.006C95.69 921.1 72 897.415 72 868.197v-624.75c0-21.928 13.529-41.582 34.013-49.414L358.36 97.551a29.745 29.745 0 0 1 14.413-3.549z m-30.455 73.623l-210.732 80.57v608.644l210.732-109.408V167.623z m60.46-0.001v579.806l210.732 109.409V248.194l-210.732-80.572z m482.184-1.355l-211.38 80.818v608.643l211.38-109.742V166.267z m-572.009 305c5.324 15.375-2.63 32.135-17.794 37.792l-0.683 0.245-89.604 31.014c-15.607 5.402-32.64-2.87-38.043-18.476-5.323-15.376 2.63-32.135 17.794-37.792l0.684-0.246 89.603-31.013c15.608-5.402 32.64 2.87 38.043 18.475z m0-140.827c5.324 15.377-2.63 32.136-17.794 37.793l-0.683 0.246-89.604 31.013c-15.607 5.402-32.64-2.87-38.043-18.475-5.323-15.377 2.63-32.136 17.794-37.793l0.684-0.246 89.603-31.013c15.608-5.402 32.64 2.87 38.043 18.475z" fill="#333333" p-id="5674"></path></svg>