<?xml version="1.0" standalone="no"?><!DOCTYPE svg PUBLIC "-//W3C//DTD SVG 1.1//EN" "http://www.w3.org/Graphics/SVG/1.1/DTD/svg11.dtd"><svg t="1608740328625" class="icon" viewBox="0 0 1024 1024" version="1.1" xmlns="http://www.w3.org/2000/svg" p-id="32630" xmlns:xlink="http://www.w3.org/1999/xlink" width="200" height="200"><defs><style type="text/css"></style></defs><path d="M809.8 174.9V851c0 20.8-16.6 37.5-37.5 37.5H273.5c-20.6 0-37.4-16.8-37.4-37.5V174.9c0-8.7 3-16.7 7.8-22.9 0.4-0.6 0.8-1.1 1.2-1.5l8.4-6.9c0.2-0.1 0.5-0.4 0.9-0.5 5.5-3.6 12.1-5.4 19-5.4h498.9c6.8 0 13.2 1.7 18.6 4.8 0.5 0.3 1.1 0.6 1.5 0.9 3.2 1.9 5.8 4.3 8.3 7.2 0.2 0.5 0.6 0.8 0.9 1.2 5.2 6.1 8.2 14.3 8.2 23.1z" fill="#FFFFFF" p-id="32631"></path><path d="M772.3 896.3H273.5c-24.9 0-45.2-20.3-45.2-45.3V174.9c0-10 3.3-19.7 9.3-27.4 0.5-0.8 1-1.4 1.5-2l1-1 10.1-8c0.2-0.1 0.4-0.2 0.7-0.3 6.5-4.1 14.3-6.2 22.6-6.2h498.9c8.1 0 15.9 2 22.5 5.9l1.7 1c3.7 2.2 7 5.1 10.1 8.7l1.2 1.5c6.3 7.5 9.8 17.5 9.8 28V851c-0.1 25-20.4 45.3-45.4 45.3zM250.6 155.9l-0.1 0.1-0.5 0.7c-4 5.1-6.2 11.5-6.2 18.1V851c0 16.4 13.3 29.8 29.6 29.8h498.9c16.4 0 29.7-13.4 29.7-29.8V174.9c0-6.9-2.3-13.4-6.3-18.2-0.4-0.5-0.8-1-1.2-1.6-1.9-2.1-3.9-3.8-6.1-5.2l-0.8-0.5c-4.8-2.8-9.8-4.1-15.2-4.1H273.5c-5.5 0-10.6 1.4-14.8 4.1l-1.4 0.9-6.7 5.6z" fill="#282828" p-id="32632"></path><path d="M710.7 174.9V851c0 20.8-16.6 37.5-37.5 37.5H174.4c-20.6 0-37.4-16.8-37.4-37.5V174.9c0-8.7 3-16.7 7.8-22.9 0.4-0.6 0.8-1.1 1.2-1.5l8.4-6.9c0.2-0.1 0.5-0.4 0.9-0.5 5.5-3.6 12.1-5.4 19-5.4h498.9c6.8 0 13.2 1.7 18.6 4.8 0.5 0.3 1.1 0.6 1.5 0.9 3.2 1.9 5.8 4.3 8.3 7.2 0.2 0.5 0.6 0.8 0.9 1.2 5.2 6.1 8.2 14.3 8.2 23.1z" fill="#FFFFFF" p-id="32633"></path><path d="M673.2 896.3H174.4c-24.9 0-45.2-20.3-45.2-45.3V174.9c0-10 3.3-19.7 9.3-27.4 0.5-0.8 1-1.4 1.5-2l1-1 10.1-8c0.2-0.1 0.4-0.2 0.7-0.3 6.5-4.1 14.3-6.2 22.6-6.2h498.9c8.1 0 15.9 2 22.5 5.9l1.7 1c3.7 2.2 7 5.1 10.1 8.7l1.2 1.5c6.3 7.5 9.8 17.5 9.8 28V851c-0.1 25-20.4 45.3-45.4 45.3zM151.5 155.9l-0.1 0.1-0.5 0.7c-4 5.1-6.2 11.5-6.2 18.1V851c0 16.4 13.3 29.8 29.6 29.8h498.9c16.4 0 29.7-13.4 29.7-29.8V174.9c0-6.9-2.3-13.4-6.3-18.2-0.4-0.5-0.8-1-1.2-1.6-1.9-2.1-3.9-3.8-6.1-5.2l-0.8-0.5c-4.8-2.8-9.8-4.1-15.2-4.1H174.4c-5.5 0-10.6 1.4-14.8 4.1l-1.4 0.9-6.7 5.6z" fill="#282828" p-id="32634"></path><path d="M671.8 206v613.9c0 20.8-16.6 37.5-37.5 37.5H197.7c-20.6 0-37.4-16.8-37.4-37.5V206c0-8.7 3-16.7 7.8-22.9 0.4-0.6 0.8-1.1 1.2-1.5l8.4-6.9c0.2-0.1 0.5-0.4 0.9-0.5 5.5-3.6 12.1-5.4 19-5.4h436.6c6.8 0 13.2 1.7 18.6 4.8 0.5 0.3 1.1 0.6 1.5 0.9 3.2 1.9 5.8 4.3 8.3 7.2 0.2 0.5 0.6 0.9 0.9 1.2 5.3 6.1 8.3 14.3 8.3 23.1z" fill="#50BCFF" p-id="32635"></path><path d="M744.4 167.4v688.1" fill="#FF7915" p-id="32636"></path><path d="M744.4 863.3c-4.3 0-7.8-3.5-7.8-7.8V167.4c0-4.3 3.5-7.8 7.8-7.8s7.8 3.5 7.8 7.8v688.1c-0.1 4.3-3.5 7.8-7.8 7.8z" fill="#50BCFF" p-id="32637"></path><path d="M774.2 167.4v688.1" fill="#FF7915" p-id="32638"></path><path d="M774.2 863.3c-4.3 0-7.8-3.5-7.8-7.8V167.4c0-4.3 3.5-7.8 7.8-7.8s7.8 3.5 7.8 7.8v688.1c-0.1 4.3-3.5 7.8-7.8 7.8z" fill="#50BCFF" p-id="32639"></path><path d="M359 137.6v194.6c0 2.6-1 4.9-2.7 6.6-1.6 1.6-4 2.7-6.6 2.7-2.5 0-4.7-1-6.4-2.6-0.1 0-0.2-0.1-0.2-0.2L304 301.5l-39.3 37.3c-1.6 1.6-4 2.7-6.6 2.7-5.1 0-9.2-4.2-9.2-9.3V137.6H359z" fill="#1A6DFF" p-id="32640"></path><path d="M349.6 349.3c-3.2 0-6.4-0.9-9-2.6h-0.8l-2.5-2.7-33.4-31.7-33.9 32.2c-3.1 3.1-7.4 4.9-12 4.9-9.4 0-17-7.7-17-17.1V129.8h125.7v202.4c0 4.6-1.8 8.9-5 12.1-3.2 3.2-7.6 5-12.1 5z m-3.3-18.2h0.2l2.3 2.3c0.4 0.4 1.8 0.2 2-0.1 0.3-0.3 0.4-0.7 0.4-1.1V145.4h-94.6v186.9c0 1.5 2.2 1.5 2.6 1.1l44.7-42.5 42.4 40.2z" fill="#282828" p-id="32641"></path><path d="M686.8 888.8l-15.5-0.5c7.4-249.7-111.8-257.1-113.1-257.2l0.9-15.5c5.5 0.3 135.6 7.1 127.7 273.2z" fill="#282828" p-id="32642"></path><path d="M671.3 888.8c-7.9-266.1 159.8-273.1 161.5-273.2l0.7 15.5c-6.3 0.3-154.1 7.1-146.6 257.2l-15.6 0.5z" fill="#282828" p-id="32643"></path><path d="M437.2 516.4c87.9 20.4 141.9 111.7 141.9 111.7s-88.6 58.3-176.5 37.9-141.9-111.7-141.9-111.7 88.6-58.3 176.5-37.9z" fill="#1A6DFF" p-id="32644"></path><path d="M441.9 678.2c-13.5 0-27.2-1.4-41.1-4.6-90.1-20.9-144.5-111.5-146.8-115.3l-3.8-6.4 6.2-4.1c3.7-2.5 92.4-59.9 182.5-39s144.5 111.5 146.8 115.3l3.8 6.4-6.2 4.1c-3.1 2.1-67.1 43.6-141.4 43.6zM271.6 556.8c14 20.8 62.6 85.4 132.7 101.6 70.3 16.3 142.2-20.4 163.9-32.9-14.1-20.8-62.6-85.3-132.8-101.6-70.2-16.2-142.1 20.4-163.8 32.9z" fill="#282828" p-id="32645"></path><path d="M845.7 643c-40.9 34-103 26.7-103 26.7s4.3-62.4 45.2-96.4c40.9-34 103-26.7 103-26.7s-4.2 62.4-45.2 96.4z" fill="#1A6DFF" p-id="32646"></path><path d="M757.5 678.2c-9 0-14.9-0.7-15.7-0.7l-7.4-0.9 0.5-7.4c0.2-2.7 5-66.1 48-101.8s106.2-28.8 108.9-28.4l7.4 0.9-0.5 7.4c-0.2 2.7-5 66.1-48 101.8-30.5 25.2-71.2 29.1-93.2 29.1z m-6.1-15.7c17.4 0.6 59.8-0.9 89.3-25.5 29.7-24.6 38.8-66 41.4-83.1-17.3-0.6-59.8 0.9-89.4 25.5-29.4 24.5-38.6 65.9-41.3 83.1z" fill="#282828" p-id="32647"></path></svg>