<?xml version="1.0" standalone="no"?><!DOCTYPE svg PUBLIC "-//W3C//DTD SVG 1.1//EN"
        "http://www.w3.org/Graphics/SVG/1.1/DTD/svg11.dtd">
<svg t="1608736277584" class="icon" viewBox="0 0 1024 1024" version="1.1" xmlns="http://www.w3.org/2000/svg" p-id="9644"
     xmlns:xlink="http://www.w3.org/1999/xlink" width="200" height="200">
    <defs>
        <style type="text/css"></style>
    </defs>
    <path d="M899.011 339H756v121h81v62h-81v73h81v64h-81v68h81v63h-81v98h203V401.868C959 367.139 932.688 339 899.011 339zM270 790h-82v-63h82v-68h-82v-64h82v-73h-82v-62h82V339H126.632C92.955 339 65 367.139 65 401.868V888h205v-98z"
          fill="#BDCCD4" p-id="9645"></path>
    <path d="M756 789.646V125.883C756 91.154 727.684 63 692.955 63h-359.83C298.396 63 270 91.154 270 125.883V888H65v70h894v-70H756v-98.354zM401 192h77v-77h70v77h77v70h-77v76h-70v-76h-77v-70z m26 219h69v70h-69v-70z m173 70h-70v-70h70v70z m103 0h-70v-70h70v70z m-379-70h69v70h-69v-70z m103 139h69v70h-69v-70z m173 70h-70v-70h70v70z m103 0h-70v-70h70v70z m-379-70h69v70h-69v-70z m103 138h69v70h-69v-70z m173 70h-70v-70h70v70z m103 0h-70v-70h70v70z m-379-70h69v70h-69v-70z m69 199h-69v-69h69v69z m103 0h-69v-69h69v69z m104 0h-70v-69h70v69z m103 0h-70v-69h70v69z"
          fill="#F45656" p-id="9646"></path>
    <path d="M324 411h69v70h-69zM427 411h69v70h-69zM530 411h70v70h-70zM633 411h70v70h-70zM324 550h69v70h-69zM427 550h69v70h-69zM530 550h70v70h-70zM633 550h70v70h-70zM324 688h69v70h-69zM427 688h69v70h-69zM530 688h70v70h-70zM633 688h70v70h-70zM324 818h69v69h-69zM427 818h69v69h-69zM530 818h70v69h-70zM633 818h70v69h-70z"
          fill="#BDCCD4" p-id="9647"></path>
</svg>