<?xml version="1.0" standalone="no"?><!DOCTYPE svg PUBLIC "-//W3C//DTD SVG 1.1//EN" "http://www.w3.org/Graphics/SVG/1.1/DTD/svg11.dtd"><svg t="1608739682210" class="icon" viewBox="0 0 1024 1024" version="1.1" xmlns="http://www.w3.org/2000/svg" p-id="25679" xmlns:xlink="http://www.w3.org/1999/xlink" width="200" height="200"><defs><style type="text/css"></style></defs><path d="M813.824 705.0752V471.3472c0-6.3488-3.072-12.3904-8.3968-16.3328L526.08 224.768c-8.192-6.144-19.9168-6.144-28.1088 0.0512L220.2112 455.0144c-5.2736 3.9936-8.3456 9.984-8.3456 16.3328v233.7792c0 65.4336 49.92 118.4768 111.4624 118.4768h379.0336c61.5424-0.0512 111.4624-53.0944 111.4624-118.528" fill="#88def9" p-id="25680"></path><path d="M702.3616 890.3168H323.328c-72.7552 0-131.9424-59.1872-131.9424-131.9424v-266.752c0-11.3152 9.1648-20.48 20.48-20.48s20.48 9.1648 20.48 20.48v266.7008c0 50.176 40.8064 90.9824 90.9824 90.9824h379.0336c50.176 0 90.9824-40.8064 90.9824-90.9824V491.6224c0-11.3152 9.1648-20.48 20.48-20.48s20.48 9.1648 20.48 20.48v266.7008c0 72.8064-59.1872 131.9936-131.9424 131.9936z" fill="#55524F" p-id="25681"></path><path d="M893.1328 471.9104c-4.608 0-9.2672-1.536-13.1072-4.7616l-340.9408-284.16a40.97536 40.97536 0 0 0-52.48 0l-340.2752 284.16a20.41344 20.41344 0 0 1-28.8256-2.6112 20.41344 20.41344 0 0 1 2.6112-28.8256l340.2752-284.16a81.88928 81.88928 0 0 1 104.96-0.0512l340.9408 284.16c8.704 7.2192 9.8816 20.1728 2.6112 28.8256a20.3264 20.3264 0 0 1-15.7696 7.424zM537.4976 662.1696h-49.2544c-37.8368 0-68.608-30.7712-68.608-68.608v-49.2544c0-37.8368 30.7712-68.608 68.608-68.608h49.2544c37.8368 0 68.608 30.7712 68.608 68.608v49.2544c-0.0512 37.7856-30.8224 68.608-68.608 68.608z m-49.3056-145.5616c-15.2576 0-27.648 12.3904-27.648 27.648v49.2544c0 15.2576 12.3904 27.648 27.648 27.648h49.2544c15.2576 0 27.648-12.3904 27.648-27.648v-49.2544c0-15.2576-12.3904-27.648-27.648-27.648h-49.2544z" fill="#55524F" p-id="25682"></path></svg>