<?xml version="1.0" standalone="no"?><!DOCTYPE svg PUBLIC "-//W3C//DTD SVG 1.1//EN" "http://www.w3.org/Graphics/SVG/1.1/DTD/svg11.dtd"><svg t="1608736411911" class="icon" viewBox="0 0 1024 1024" version="1.1" xmlns="http://www.w3.org/2000/svg" p-id="11518" xmlns:xlink="http://www.w3.org/1999/xlink" width="200" height="200"><defs><style type="text/css"></style></defs><path d="M512 512m-512 0a512 512 0 1 0 1024 0 512 512 0 1 0-1024 0Z" fill="#737BF2" p-id="11519"></path><path d="M308.48 285.76h438.848v484.032H308.48V285.76zM378.688 368.64v24.128h306.944V368.64H378.688z m0 59.008v24.128h306.944v-24.128H378.688z m0 60.224v24.064h306.944v-24.064H378.688z m109.76 86.72V550.4H378.688v24.128h109.76z m18.112 62.4c2.624 11.264 4.608 22.784 5.952 34.56 4.48-6.4 8.64-13.056 12.736-20.032v80.832h22.848V603.52c5.376-13.632 10.112-28.096 14.336-43.392l-24.32-7.296c-8.32 34.176-18.88 62.208-31.552 84.096z m60.096-8.512h39.552v16.32H554.88v20.736h38.08a155.52 155.52 0 0 1-43.136 36.864c5.312 7.36 9.92 14.656 13.76 21.76 16.448-11.456 30.72-25.6 42.688-42.688v50.88h25.792v-52.032c9.6 16.704 23.232 30.592 40.896 41.664 3.52-6.016 8.32-13.888 14.336-23.616-19.648-8.896-34.24-19.84-43.84-32.832h41.6v-20.736h-52.992V628.48h41.088V560.576H566.656v67.84z m82.24-21.632h-58.112v-24.704h58.112v24.704z" fill="#FFFFFF" p-id="11520"></path></svg>