<?xml version="1.0" standalone="no"?><!DOCTYPE svg PUBLIC "-//W3C//DTD SVG 1.1//EN" "http://www.w3.org/Graphics/SVG/1.1/DTD/svg11.dtd"><svg t="1608732251962" class="icon" viewBox="0 0 1024 1024" version="1.1" xmlns="http://www.w3.org/2000/svg" p-id="3472" xmlns:xlink="http://www.w3.org/1999/xlink" width="200" height="200"><defs><style type="text/css"></style></defs><path d="M728.5 846.5c-3.6 0-7.1-1.3-9.8-3.8l-94.3-84.6c-6-5.4-6.5-14.7-1.1-20.7s14.7-6.5 20.7-1.1l82.5 74L839.1 663c4.9-6.4 14.1-7.7 20.6-2.7 6.4 4.9 7.7 14.1 2.7 20.6L740.2 840.7c-2.5 3.3-6.2 5.3-10.3 5.7-0.5 0.1-0.9 0.1-1.4 0.1z" p-id="3473"></path><path d="M743.7 958.9c-120.1 0-217.9-97.7-217.9-217.9s97.7-217.9 217.9-217.9c120.1 0 217.9 97.7 217.9 217.9s-97.7 217.9-217.9 217.9z m0-406.4c-104 0-188.5 84.6-188.5 188.5s84.6 188.5 188.5 188.5c104 0 188.5-84.6 188.5-188.5s-84.5-188.5-188.5-188.5zM470.6 928.3h-392c-8.1 0-14.7-6.6-14.7-14.7 0-184.4 118.1-345.3 293.8-400.5 7.7-2.4 16 1.9 18.4 9.6 2.4 7.7-1.9 16-9.6 18.4C207.8 591 99.6 733.7 93.5 898.9h377.1c8.1 0 14.7 6.6 14.7 14.7s-6.6 14.7-14.7 14.7z" p-id="3474"></path><path d="M470.6 560.4c-136.9 0-248.2-111.4-248.2-248.2C222.4 175.3 333.8 64 470.6 64s248.2 111.4 248.2 248.2c0 136.8-111.3 248.2-248.2 248.2z m0-467.1c-120.7 0-218.9 98.2-218.9 218.9s98.2 218.9 218.9 218.9 218.9-98.2 218.9-218.9S591.3 93.3 470.6 93.3z" p-id="3475"></path></svg>