<?xml version="1.0" standalone="no"?><!DOCTYPE svg PUBLIC "-//W3C//DTD SVG 1.1//EN"
        "http://www.w3.org/Graphics/SVG/1.1/DTD/svg11.dtd">
<svg t="1608740284436" class="icon" viewBox="0 0 1024 1024" version="1.1" xmlns="http://www.w3.org/2000/svg"
     p-id="30090" xmlns:xlink="http://www.w3.org/1999/xlink" width="200" height="200">
    <defs>
        <style type="text/css"></style>
    </defs>
    <path d="M390.4 336.7936a162.7648 152.9344 90 1 0 305.8688 0 162.7648 152.9344 90 1 0-305.8688 0Z" fill="#88def9"
          p-id="30091"></path>
    <path d="M505.2928 525.1584c-115.7632 0-209.92-94.1568-209.92-209.92s94.1568-209.92 209.92-209.92 209.92 94.1568 209.92 209.92-94.1568 209.92-209.92 209.92z m0-368.64c-87.5008 0-158.72 71.2192-158.72 158.72s71.2192 158.72 158.72 158.72 158.72-71.2192 158.72-158.72-71.168-158.72-158.72-158.72z"
          fill="#515151" p-id="30092"></path>
    <path d="M643.84 621.7728H432.9472c-124.928 0-226.2016 101.2736-226.2016 226.2016v16.7936c0 12.7488 10.2912 23.04 23.04 23.04h617.216c12.7488 0 23.04-10.2912 23.04-23.04v-16.7936c0-124.928-101.2736-226.2016-226.2016-226.2016z"
          fill="#88def9" p-id="30093"></path>
    <path d="M829.0816 913.3568H177.6128c-36.7104 0-66.56-29.8496-66.56-66.56v-22.784c0-148.736 120.9856-269.7216 269.7216-269.7216h245.0944c148.736 0 269.7216 120.9856 269.7216 269.7216v22.784c0.0512 36.7104-29.7984 66.56-66.5088 66.56z m-448.256-307.8144c-120.5248 0-218.5216 98.048-218.5216 218.5216v22.784c0 8.448 6.912 15.36 15.36 15.36h651.4176c8.448 0 15.36-6.912 15.36-15.36v-22.784c0-120.4736-98.048-218.5216-218.5216-218.5216H380.8256z"
          fill="#515151" p-id="30094"></path>
</svg>