<?xml version="1.0" standalone="no"?><!DOCTYPE svg PUBLIC "-//W3C//DTD SVG 1.1//EN" "http://www.w3.org/Graphics/SVG/1.1/DTD/svg11.dtd"><svg t="1608736586430" class="icon" viewBox="0 0 1025 1024" version="1.1" xmlns="http://www.w3.org/2000/svg" p-id="17106" xmlns:xlink="http://www.w3.org/1999/xlink" width="200.1953125" height="200"><defs><style type="text/css"></style></defs><path d="M368.9 928.1c-139.4 0-252.4-113-252.4-252.4s113-252.4 252.4-252.4 252.4 113 252.4 252.4-113 252.4-252.4 252.4z" fill="#00C2FF" p-id="17107"></path><path d="M937 1014.3H504.8c-68.2 0-134.3-13.3-196.5-39.7-60.1-25.4-114.1-61.8-160.5-108.1C101.5 820.2 65.1 766.2 39.7 706 13.4 643.8 0 577.7 0 509.5 0 441.3 13.3 375.2 39.7 313c25.4-60.1 61.8-114.1 108.1-160.5 46.3-46.3 100.3-82.7 160.5-108.1C370.5 18 436.7 4.7 504.8 4.7c68.5 0 135.1 13.5 197.7 40.1 60.6 25.7 114.9 62.4 161.4 109.2C910 200.3 946 254.2 971.1 314c26 62.1 39 127.9 38.6 195.8-0.4 53.3-0.9 119.6-49.4 219.1l-69.8-34c40.7-83.6 41.2-137.8 41.5-185.6 0.7-113.1-43.1-219.9-123.2-300.5-81-81.5-188.9-126.4-304-126.4C269.3 82.4 77.7 274 77.7 509.5s191.6 427.2 427.2 427.2h338.5L730.5 823.9l54.9-54.9 179 179c11.1 11.1 14.4 27.8 8.4 42.3-5.9 14.6-20.1 24-35.8 24z" fill="#27282A" p-id="17108"></path><path d="M349.5 403.9H699v77.7H349.5z" fill="#27282A" p-id="17109"></path><path d="M524.2 501c-11.2 0-21.9-4.8-29.2-13.3L359.1 332.4l58.4-51.1 106.7 121.9 106.7-122 58.4 51.1-135.8 155.4c-7.4 8.4-18.1 13.3-29.3 13.3z" fill="#27282A" p-id="17110"></path><path d="M485.4 462.1h77.7v310.7h-77.7z" fill="#27282A" p-id="17111"></path><path d="M349.5 559.2H699v77.7H349.5z" fill="#27282A" p-id="17112"></path></svg>