<?xml version="1.0" standalone="no"?><!DOCTYPE svg PUBLIC "-//W3C//DTD SVG 1.1//EN" "http://www.w3.org/Graphics/SVG/1.1/DTD/svg11.dtd"><svg t="1608736536892" class="icon" viewBox="0 0 1024 1024" version="1.1" xmlns="http://www.w3.org/2000/svg" p-id="15126" xmlns:xlink="http://www.w3.org/1999/xlink" width="200" height="200"><defs><style type="text/css"></style></defs><path d="M935.563636 239.709091v165.236364c0 20.945455 6.981818 32.581818 23.272728 32.581818s23.272727-11.636364 23.272727-32.581818v-153.6c0-41.890909-16.290909-55.854545-58.181818-55.854546h-72.145455c-2.327273-79.127273-51.2-134.981818-130.327273-139.636364H160.581818C32.581818 55.854545 0 137.309091 0 232.727273v686.545454c0 30.254545 6.981818 46.545455 44.218182 46.545455h889.018182c27.927273 0 46.545455-13.963636 46.545454-46.545455v-144.290909c0-13.963636-4.654545-34.909091-23.272727-34.909091-20.945455 0-23.272727 18.618182-23.272727 39.563637v137.309091L46.545455 919.272727V239.709091h889.018181zM137.309091 102.4h577.163636c41.890909 0 90.763636 34.909091 90.763637 90.763636H46.545455c2.327273-39.563636 34.909091-90.763636 90.763636-90.763636z" fill="#018BE6" p-id="15127"></path><path d="M716.8 556.218182c-18.618182 0-34.909091 16.290909-34.909091 34.909091s16.290909 34.909091 34.909091 34.909091 34.909091-16.290909 34.909091-34.909091-16.290909-34.909091-34.909091-34.909091z" fill="#018BE6" p-id="15128"></path><path d="M896 460.8h-188.509091c-69.818182 0-128 58.181818-128 128v4.654545c0 69.818182 58.181818 128 128 128h188.509091c69.818182 0 128-58.181818 128-128v-4.654545c0-69.818182-58.181818-128-128-128z m81.454545 132.654545c0 37.236364-20.945455 79.127273-79.127272 79.127273h-188.509091C649.309091 674.909091 628.363636 628.363636 628.363636 591.127273v-4.654546c0-37.236364 18.618182-79.127273 81.454546-79.127272h188.509091c58.181818 0 79.127273 44.218182 79.127272 81.454545v4.654545z" fill="#018BE6" p-id="15129"></path><path d="M467.781818 646.981818h-123.345454V605.090909h123.345454c13.963636 0 23.272727-11.636364 23.272727-23.272727s-11.636364-23.272727-23.272727-23.272727h-90.763636l83.781818-137.309091c6.981818-11.636364 2.327273-25.6-9.309091-32.581819-11.636364-6.981818-25.6-2.327273-32.581818 9.309091L321.163636 558.545455h-2.327272l-95.418182-162.909091c-6.981818-11.636364-20.945455-13.963636-32.581818-9.309091-11.636364 6.981818-13.963636 20.945455-9.309091 32.581818l83.781818 137.309091h-93.090909c-13.963636 0-23.272727 11.636364-23.272727 23.272727s11.636364 23.272727 23.272727 23.272727h123.345454v41.890909H172.218182c-13.963636 0-23.272727 11.636364-23.272727 23.272728s11.636364 23.272727 23.272727 23.272727h123.345454v81.454545c0 13.963636 11.636364 23.272727 23.272728 23.272728s23.272727-11.636364 23.272727-23.272728v-81.454545H465.454545c13.963636 0 23.272727-11.636364 23.272728-23.272727s-6.981818-20.945455-20.945455-20.945455z" fill="#018BE6" p-id="15130"></path></svg>