<?xml version="1.0" standalone="no"?><!DOCTYPE svg PUBLIC "-//W3C//DTD SVG 1.1//EN" "http://www.w3.org/Graphics/SVG/1.1/DTD/svg11.dtd"><svg t="1609080811255" class="icon" viewBox="0 0 1024 1024" version="1.1" xmlns="http://www.w3.org/2000/svg" p-id="7356" xmlns:xlink="http://www.w3.org/1999/xlink" width="200" height="200"><defs><style type="text/css"></style></defs><path d="M512 512m-512 0a512 512 0 1 0 1024 0 512 512 0 1 0-1024 0Z" fill="#FFFFFF" p-id="7357"></path><path d="M427.52 604.16v186.88l81.92 230.4 84.48-230.4v-186.88z" fill="#FEE1B9" p-id="7358"></path><path d="M509.44 604.16v417.28l84.48-230.4v-186.88z" fill="#FFD9AC" p-id="7359"></path><path d="M284.16 437.76c-2.56-28.16 12.8-51.2 35.84-56.32 20.48-2.56 40.96 17.92 43.52 46.08 2.56 28.16-12.8 53.76-33.28 56.32-23.04 2.56-40.96-17.92-46.08-46.08" fill="#FEE1B9" p-id="7360"></path><path d="M691.2 483.84c-20.48-2.56-35.84-28.16-33.28-53.76 2.56-28.16 23.04-48.64 46.08-46.08 20.48 0 35.84 25.6 30.72 53.76-2.56 28.16-23.04 48.64-43.52 46.08" fill="#FFD9AC" p-id="7361"></path><path d="M509.44 204.8S332.8 212.48 332.8 307.2v192c0 38.4 61.44 143.36 115.2 148.48 28.16 2.56 64 5.12 64 5.12s35.84-2.56 64-5.12c53.76-5.12 112.64-110.08 112.64-148.48V312.32c-2.56-94.72-179.2-107.52-179.2-107.52" fill="#FEE1B9" p-id="7362"></path><path d="M509.44 204.8S332.8 212.48 332.8 307.2v192c0 38.4 61.44 143.36 115.2 148.48 28.16 2.56 64 5.12 64 5.12s35.84-2.56 64-5.12c53.76-5.12 112.64-110.08 112.64-148.48V312.32c-2.56-94.72-179.2-107.52-179.2-107.52" fill="#FEE1B9" p-id="7363"></path><path d="M686.08 312.32v186.88c0 38.4-61.44 143.36-115.2 148.48-28.16 2.56-64 5.12-64 5.12V204.8c2.56 0 179.2 12.8 179.2 107.52" fill="#FFD9AC" p-id="7364"></path><path d="M404.48 709.12s-174.08 23.04-212.48 71.68c-12.8 15.36-25.6 56.32-33.28 99.84C250.88 970.24 376.32 1024 512 1024V737.28l-107.52-28.16z" fill="#D0D4D7" p-id="7365"></path><path d="M865.28 880.64c-10.24-43.52-20.48-84.48-33.28-99.84-38.4-48.64-215.04-71.68-215.04-71.68L512 737.28V1024h2.56c135.68 0 258.56-53.76 350.72-143.36z" fill="#B9C7D0" p-id="7366"></path><path d="M509.44 727.04l-35.84 35.84 25.6 25.6-33.28 179.2 38.4 53.76h7.68V727.04zM527.36 1011.2l28.16-40.96-33.28-181.76 33.28 181.76zM547.84 762.88l-12.8-10.24 12.8 10.24zM509.44 727.04z" fill="#436B85" p-id="7367"></path><path d="M509.44 727.04l25.6 25.6zM517.12 1024l10.24-12.8zM509.44 727.04zM547.84 762.88l-25.6 25.6zM512 1024h5.12l7.68-12.8 30.72-43.52-33.28-179.2 25.6-25.6-12.8-12.8-25.6-25.6L512 1024c-2.56 0 0 0 0 0z" fill="#315D76" p-id="7368"></path><path d="M509.44 727.04l87.04-43.52 46.08 25.6-74.24 104.96z" fill="#D0D4D7" p-id="7369"></path><path d="M509.44 727.04l-84.48-43.52-46.08 25.6 89.6 104.96zM509.44 588.8c23.04 0 43.52-17.92 43.52-38.4h-87.04c0 23.04 17.92 38.4 43.52 38.4" fill="#FFFFFF" p-id="7370"></path><path d="M609.28 450.56c0-7.68-7.68-15.36-15.36-15.36s-15.36 7.68-15.36 15.36 7.68 15.36 15.36 15.36c10.24-2.56 15.36-7.68 15.36-15.36M437.76 442.88c0-7.68-7.68-15.36-15.36-15.36s-12.8 7.68-12.8 15.36 7.68 15.36 15.36 15.36 12.8-5.12 12.8-15.36" fill="#726658" p-id="7371"></path><path d="M453.12 414.72s-2.56 0 0 0c-7.68-7.68-17.92-12.8-30.72-12.8s-23.04 5.12-28.16 12.8c0 2.56-2.56 2.56-5.12 0-2.56 0-2.56-2.56 0-5.12 5.12-7.68 17.92-12.8 33.28-12.8 12.8 0 25.6 5.12 33.28 12.8 0 2.56 0 5.12-2.56 5.12 2.56 0 0 0 0 0M624.64 414.72c-7.68-7.68-17.92-12.8-30.72-12.8s-23.04 5.12-28.16 12.8c0 2.56-2.56 2.56-5.12 0-2.56 0-2.56-2.56 0-5.12 5.12-7.68 17.92-12.8 33.28-12.8 12.8 0 25.6 5.12 33.28 12.8 2.56 2.56 0 5.12-2.56 5.12 2.56 0 0 0 0 0M317.44 419.84h15.36l23.04-158.72s-51.2-20.48-61.44 40.96c-10.24 64 23.04 117.76 23.04 117.76M696.32 419.84h-17.92l-23.04-158.72s51.2-20.48 61.44 40.96c12.8 64-20.48 117.76-20.48 117.76" fill="#61402F" p-id="7372"></path><path d="M335.36 279.04s71.68 56.32 171.52 56.32c99.84 0 194.56-30.72 238.08-115.2-2.56 0-76.8-12.8-168.96-84.48-117.76-89.6-335.36 43.52-240.64 143.36" fill="#61402F" p-id="7373"></path></svg>