<?xml version="1.0" standalone="no"?><!DOCTYPE svg PUBLIC "-//W3C//DTD SVG 1.1//EN" "http://www.w3.org/Graphics/SVG/1.1/DTD/svg11.dtd"><svg t="1608736390885" class="icon" viewBox="0 0 1024 1024" version="1.1" xmlns="http://www.w3.org/2000/svg" p-id="11147" xmlns:xlink="http://www.w3.org/1999/xlink" width="200" height="200"><defs><style type="text/css"></style></defs><path d="M711.055447 364.623266a43.195477 43.195477 0 1 0 0 86.390954 43.195477 43.195477 0 0 0 0-86.390954z" fill="#438CFF" p-id="11148"></path><path d="M897.731159 247.594694a34.600913 34.600913 0 0 0-31.261057-19.46023l-5.521896 0.31172-3.117199 0.178126A339.730202 339.730202 0 0 1 544.730594 20.840705C539.520417 8.505501 523.578169 0.400783 510.218743 0.400783s-25.516504 8.015656-30.72668 20.350859C425.920765 146.909154 303.147641 228.490715 164.076017 228.490715l-5.388302-0.31172a33.175908 33.175908 0 0 0-31.216526 19.193042 413.741422 413.741422 0 0 0-40.033746 168.061579 425.141466 425.141466 0 0 0 131.278626 316.262144c6.768776 6.857839 273.601044 281.794825 273.601043 281.794825a33.354033 33.354033 0 0 0 23.957904 10.153164h0.267189a33.576691 33.576691 0 0 0 24.091498-10.509415c103.49102-110.304327 260.642401-277.430746 269.147902-285.936247a420.821918 420.821918 0 0 0 126.959078-302.457404 421.935203 421.935203 0 0 0-39.009524-177.145989z m-134.841139 431.954773c-9.218004 9.08441-180.263188 191.173386-247.060318 262.334595a140528.825919 140528.825919 0 0 0-250.533768-257.970516 358.834181 358.834181 0 0 1-111.105893-267.054925c0.890628-41.369689 9.351598-82.205001 25.204784-121.615307A406.349206 406.349206 0 0 0 512 102.733986a406.171081 406.171081 0 0 0 333.362209 192.553859c16.253968 41.503283 24.492281 84.921418 24.492281 129.452838a354.247445 354.247445 0 0 1-106.96447 254.808784z" fill="#438CFF" p-id="11149"></path><path d="M604.669885 445.581387l-178.348337 178.348337-96.009741-96.009741a33.398565 33.398565 0 1 0-47.247837 47.247836l143.213047 143.257578 225.551641-225.551642a33.398565 33.398565 0 0 0-47.158773-47.292368z" fill="#438CFF" p-id="11150"></path></svg>