<?xml version="1.0" encoding="utf-8"?>
<!-- Generator: Adobe Illustrator 16.0.0, SVG Export Plug-In . SVG Version: 6.00 Build 0)  -->
<!DOCTYPE svg PUBLIC "-//W3C//DTD SVG 1.1//EN" "http://www.w3.org/Graphics/SVG/1.1/DTD/svg11.dtd">
<svg version="1.1" id="图层_1" xmlns="http://www.w3.org/2000/svg" xmlns:xlink="http://www.w3.org/1999/xlink" x="0px" y="0px"
	 width="595.28px" height="660.472px" viewBox="0 0 595.28 660.472" enable-background="new 0 0 595.28 660.472"
	 xml:space="preserve">
<linearGradient id="SVGID_1_" gradientUnits="userSpaceOnUse" x1="426.9521" y1="734.7446" x2="168.3278" y2="-61.2191">
	<stop  offset="0" style="stop-color:#7E318E"/>
	<stop  offset="1" style="stop-color:#2EA7E0"/>
</linearGradient>
<rect y="-6.526" fill="url(#SVGID_1_)" stroke="#000000" stroke-miterlimit="10" width="595.28" height="686.578"/>
<g>
	<path fill="#FFFFFF" d="M423.395,268.375c0-36.575-29.65-66.227-66.225-66.227c-22.791,0-42.891,11.518-54.807,29.047
		c-11.914-17.529-32.018-29.047-54.807-29.047c-36.573,0-66.225,29.651-66.225,66.227c0,19.458,8.394,36.956,21.757,49.072
		l-0.365,0.366l99.064,98.65l101.848-100.51l-0.232-0.184C415.729,303.743,423.395,286.957,423.395,268.375z M373.617,324.449
		l-9.602-63.773l-15.943,79.197l-21.637-52.828l-7.584,61.173l-4.525,0.054l-12.477-84.066l-9.342,75.777l-4.535-0.007
		l-5.475-45.344l-4.027,23.803l-4.414,0.351l-10.841-32.025l-12.476,49.115l-4.491-0.43l-3.824-65.723l-18.579,43.18l-4.195-1.805
		l22.395-52.05l4.378,0.769l3.527,60.621l12.641-49.771l12.888,38.076l5.149-30.411l4.518,0.108l5.121,42.406l9.107-73.885
		l4.525-0.059l12.482,84.111l7.668-61.846l22.523,54.998l15.525-77.124l4.5,0.109l9.529,63.294l7.061-12.794l21.877-0.644
		l0.135,4.564l-19.275,0.567L373.617,324.449z"/>
</g>
<g>
	<path fill="#FFFFFF" d="M479.758,369.371c7.748,0,14.207,4.802,15.699,11.185h7.566c-1.574-10.012-11.377-17.727-23.266-17.727
		s-21.691,7.715-23.265,17.727h7.568C465.553,374.173,472.014,369.371,479.758,369.371z"/>
	<g>
		<path fill="#FFFFFF" d="M525.76,382.317h-92.004c-7.865,0-14.244,6.378-14.244,14.246v55.199c0,7.867,6.379,14.246,14.244,14.246
			h92.004c7.869,0,14.246-6.379,14.246-14.246v-55.199C540.006,388.695,533.629,382.317,525.76,382.317z M437.834,388.046
			c-0.005,0.003-0.021,0.008-0.029,0.01c-0.477,0.188-4.769,0.842-8.053,5.256c-2.694,4.803-0.316,14.384-0.881,23.813
			c0,19.312-1.701,34.966-1.701,34.966s-1.701-15.654-1.701-34.966c0.699-9.554-1.271-18.537,2.922-24.83
			c4.623-4.59,8.943-4.123,9.414-4.238C437.813,388.054,437.829,388.049,437.834,388.046c0.016-0.008,0.026-0.018,0.016-0.031
			C437.86,388.028,437.85,388.038,437.834,388.046z M501.799,427.139h-17.527v17.527h-9.027v-17.527h-17.525v-9.025h17.525v-17.525
			h9.027v17.525h17.527V427.139z"/>
	</g>
</g>
<g>
	
		<rect x="488.117" y="326.357" transform="matrix(0.9515 -0.3077 0.3077 0.9515 -75.9174 173.6249)" fill="#FFFFFF" width="48.92" height="2.353"/>
	
		<rect x="482.616" y="309.351" transform="matrix(0.9515 -0.3077 0.3077 0.9515 -70.9507 171.107)" fill="#FFFFFF" width="48.92" height="2.351"/>
	
		<rect x="497.596" y="310.328" transform="matrix(0.9515 -0.3077 0.3077 0.9515 -73.4341 172.3663)" fill="#FFFFFF" width="24.461" height="17.404"/>
	<g>
		<polygon fill="#FFFFFF" points="473.149,210.018 468.14,229.879 468.154,229.925 491.378,222.414 475.645,209.21 		"/>
	</g>
	<polygon fill="#FFFFFF" points="473.291,209.462 458.59,160.84 475.108,208.875 	"/>
	<g>
		<polygon fill="#FFFFFF" points="468.879,232.163 471.568,240.479 480.354,237.639 480.681,238.65 471.896,241.492 
			472.878,244.528 481.663,241.687 481.99,242.699 473.205,245.54 474.187,248.576 482.973,245.734 483.3,246.746 474.514,249.588 
			475.496,252.624 484.281,249.783 484.608,250.794 475.823,253.635 476.806,256.673 485.591,253.831 485.918,254.843 
			477.133,257.685 478.114,260.719 486.899,257.878 487.227,258.89 478.441,261.731 479.424,264.768 488.209,261.927 
			488.536,262.938 479.751,265.779 480.732,268.816 489.518,265.975 489.846,266.986 481.06,269.828 482.042,272.863 
			490.827,270.022 491.154,271.034 482.369,273.875 483.351,276.911 492.136,274.069 492.464,275.083 483.679,277.924 
			484.66,280.959 493.445,278.118 493.772,279.13 484.987,281.972 485.97,285.008 494.755,282.167 495.082,283.179 486.297,286.02 
			487.278,289.056 496.063,286.214 496.391,287.226 487.605,290.067 488.587,293.103 497.373,290.262 497.7,291.273 
			488.914,294.115 489.896,297.151 498.682,294.31 499.01,295.322 490.224,298.163 491.206,301.199 499.991,298.357 
			500.318,299.369 491.533,302.211 494.209,310.486 517.483,302.959 492.152,224.636 		"/>
	</g>
</g>
<g>
	<g>
		<path fill="#FFFFFF" d="M109.389,233.758l11.901-0.212l11.9,0.212c0,0,5.547-23.449-11.744-23.738v-0.014
			c-0.054,0-0.102,0.007-0.157,0.007c-0.055,0-0.103-0.007-0.157-0.007v0.014C103.842,210.309,109.389,233.758,109.389,233.758z
			 M121.171,213.227v-0.011c0.042,0,0.078,0.005,0.119,0.005c0.042,0,0.078-0.005,0.119-0.005v0.011
			c13.085,0.219,8.888,17.964,8.888,17.964l-9.006-0.16l-9.005,0.16C112.285,231.19,108.086,213.445,121.171,213.227z"/>
	</g>
	<g>
		<path fill="#FFFFFF" d="M167.355,420.108l1.678-0.336c-2.303-11.512-16.09-20.938-39.871-27.26
			c-11.94-3.175-7.045-40.122-6.996-40.492l-1.694,0.005c-0.216,1.573-5.14,38.582,8.25,42.142
			C151.83,400.309,165.189,409.279,167.355,420.108L167.355,420.108z"/>
	</g>
	<g>
		<path fill="#FFFFFF" d="M90.138,285.991c-5.661,31.001-7.278,53.107,29.385,61.194v4.043h1.379h0.777h1.379v-4.043
			c11.523-2.543,19.263-6.471,24.285-11.622h-3.738v-1.371h4.986c1.842-2.167,3.256-4.53,4.312-7.082h-9.298v-1.372h9.819
			c0.792-2.229,1.333-4.592,1.667-7.083h-11.487v-1.37h11.648c0.232-2.262,0.305-4.624,0.249-7.083h-11.897v-1.371h11.855
			c-0.094-2.281-0.292-4.645-0.565-7.083h-11.29v-1.371h11.128c-0.283-2.297-0.628-4.657-1.022-7.082h-10.106v-1.371h9.88
			c-0.324-1.939-0.675-3.917-1.043-5.933c-0.071-0.387-0.121-0.767-0.185-1.15h-8.652v-1.371h8.432
			c-0.349-2.411-0.555-4.772-0.648-7.083h-7.783v-1.371h7.731c-0.052-2.43,0.029-4.79,0.209-7.082h-7.94v-1.371h8.054
			c0.238-2.453,0.589-4.82,1.029-7.083h-9.083v-1.371h9.372c0.533-2.497,1.163-4.866,1.854-7.083h-11.226v-1.37h11.671
			c0.861-2.595,1.789-4.966,2.715-7.083h-14.386v-1.371h15c2.962-6.445,5.699-10.204,5.699-10.204h-33.697l-8.928-0.248v-0.021
			l-0.389,0.01l-0.388-0.01v0.021l-8.928,0.248H78.276C78.276,230.997,95.8,254.989,90.138,285.991z M94.252,291.342
			c6.11-28.128-3.33-50.764-5.752-55.31c-0.347-0.549-0.552-0.84-0.545-0.833c0.019-0.07,0.221,0.226,0.545,0.833
			c1.172,1.861,4.035,6.846,6.41,14.688c3.231,10.024,4.664,25.125,1.603,40.938c-2.52,15.644,0.168,30.414,6.288,38.897
			c5.982,8.566,12.455,11.225,12.246,11.363c0.212-0.162-6.502-2.207-13.174-10.699C95.056,322.837,91.642,307.344,94.252,291.342z"
			/>
	</g>
</g>
<g>
	<g>
		<path fill="#FFFFFF" d="M269.449,494.858l-11.904-3.998l1.019-3.033c2.513-7.484-2.151-15.803-10.417-18.578l-72.35-24.293
			c-8.267-2.775-17.005,1.043-19.518,8.527l-11.376,33.881c-2.313,6.891,1.465,14.479,8.529,17.807
			c3.319-9.385,13.558-14.41,23.029-11.23c9.513,3.193,14.653,13.457,11.55,22.979l17.38,5.836c0.422,0.209,0.856,0.402,1.316,0.557
			l11.744,3.943c3.232-9.531,13.57-14.66,23.118-11.453c9.547,3.205,14.696,13.531,11.52,23.082l1.418,0.477
			c5.462,1.834,11.376-1.107,13.21-6.568l8.301-24.725C277.852,502.606,274.911,496.692,269.449,494.858z M194.45,481.317
			l-8.716-2.926l-2.927,8.717l-5.23-1.756l2.927-8.717l-8.715-2.928l1.756-5.229l8.715,2.926l2.927-8.717l5.23,1.756l-2.927,8.717
			l8.716,2.928L194.45,481.317z M237.305,484.981l4.706-14.926c0,0,17.678,3.795,12.051,20.553L237.305,484.981z"/>
		<path fill="#FFFFFF" d="M240.872,517.875c-8.42-2.826-17.539,1.707-20.367,10.127c-2.827,8.42,1.708,17.539,10.128,20.367
			c8.419,2.826,17.538-1.709,20.364-10.127C253.825,529.821,249.291,520.704,240.872,517.875z M233.067,541.122
			c-4.417-1.482-6.796-6.268-5.313-10.686c1.483-4.416,6.268-6.795,10.685-5.313c4.416,1.482,6.794,6.268,5.312,10.686
			C242.267,540.225,237.482,542.604,233.067,541.122z"/>
		<path fill="#FFFFFF" d="M175.764,496.014c-8.419-2.826-17.538,1.709-20.365,10.129c-2.827,8.42,1.707,17.539,10.127,20.365
			c8.421,2.828,17.54-1.707,20.366-10.127C188.719,507.961,184.185,498.842,175.764,496.014z M167.958,519.26
			c-4.417-1.482-6.796-6.268-5.313-10.684c1.483-4.418,6.267-6.797,10.685-5.314c4.417,1.484,6.796,6.268,5.313,10.686
			C177.16,518.366,172.376,520.745,167.958,519.26z"/>
	</g>
	<g>
		<path fill="#FFFFFF" d="M232.391,448.735c-3.612-1.213-7.524,0.732-8.737,4.344l-0.924,2.754c-0.289,0.861-0.395,1.736-0.345,2.59
			l12.139,4.074c0.554-0.65,1-1.412,1.288-2.271l0.925-2.752C237.949,453.86,236.003,449.948,232.391,448.735z M232.155,449.415
			c0,0,5.277,2.678,3.496,7.98C235.651,457.395,235.357,452.065,232.155,449.415z"/>
	</g>
</g>
<g>
	<g>
		<path fill="#FFFFFF" d="M379,496.592l-17.161-0.113v-0.053l-4.084,0.027l-4.083-0.027v0.053l-17.161,0.113
			c0,0,0.499,9.164-7.166,9.164v53.154h24.327h8.167h24.327v-53.154C378.501,505.756,379,496.592,379,496.592z M356.059,537.891
			h-24.925v-22.215h52.962v22.215H356.059"/>
	</g>
	<g>
		<path fill="#FFFFFF" d="M332.292,475.495v19.898h50.926v-20.234L332.292,475.495z M333.5,493.653v-16.785
			c3.73,15.541,24.866,16.785,24.866,16.785H333.5z"/>
	</g>
</g>
</svg>
