<?xml version="1.0" encoding="utf-8"?>
<!-- Generator: Adobe Illustrator 16.0.0, SVG Export Plug-In . SVG Version: 6.00 Build 0)  -->
<!DOCTYPE svg PUBLIC "-//W3C//DTD SVG 1.1//EN" "http://www.w3.org/Graphics/SVG/1.1/DTD/svg11.dtd">
<svg version="1.1" id="图层_1" xmlns="http://www.w3.org/2000/svg" xmlns:xlink="http://www.w3.org/1999/xlink" x="0px" y="0px"
	 width="595.28px" height="673.525px" viewBox="0 0 595.28 673.525" enable-background="new 0 0 595.28 673.525"
	 xml:space="preserve">
<linearGradient id="SVGID_1_" gradientUnits="userSpaceOnUse" x1="426.9521" y1="741.271" x2="168.3278" y2="-54.6927">
	<stop  offset="0" style="stop-color:#7E318E"/>
	<stop  offset="1" style="stop-color:#2EA7E0"/>
</linearGradient>
<rect fill="url(#SVGID_1_)" stroke="#000000" stroke-miterlimit="10" width="595.28" height="686.578"/>
<g>
	<path fill="#FFFFFF" d="M376.102,364.117c0-27.754-22.499-50.254-50.252-50.254c-17.295,0-32.546,8.74-41.588,22.042
		c-9.041-13.302-24.295-22.042-41.588-22.042c-27.752,0-50.253,22.5-50.253,50.254c0,14.765,6.369,28.043,16.509,37.237
		l-0.277,0.278l75.172,74.858l77.283-76.269l-0.176-0.14C370.284,390.955,376.102,378.218,376.102,364.117z M338.33,406.667
		l-7.286-48.393l-12.098,60.096l-16.419-40.087l-5.754,46.419l-3.434,0.041l-9.467-63.791l-7.089,57.501l-3.441-0.005l-4.154-34.407
		l-3.056,18.062l-3.349,0.266l-8.227-24.301l-9.467,37.27l-3.408-0.326l-2.902-49.872l-14.098,32.766l-3.183-1.37l16.994-39.496
		l3.322,0.583l2.677,46l9.592-37.767l9.78,28.893l3.907-23.076l3.428,0.082l3.886,32.179l6.911-56.065l3.434-0.044l9.472,63.825
		l5.818-46.93l17.092,41.733l11.78-58.523l3.415,0.083l7.23,48.028l5.358-9.708l16.601-0.488l0.102,3.463l-14.626,0.431
		L338.33,406.667z"/>
</g>
<g>
	<path fill="#FFFFFF" d="M386.133,456.427c6.026,0,11.05,3.734,12.21,8.699h5.885c-1.224-7.787-8.848-13.787-18.095-13.787
		c-9.246,0-16.87,6-18.094,13.787h5.886C375.085,460.162,380.11,456.427,386.133,456.427z"/>
	<g>
		<path fill="#FFFFFF" d="M421.911,466.497h-71.557c-6.117,0-11.078,4.96-11.078,11.079v42.932c0,6.118,4.961,11.08,11.078,11.08
			h71.557c6.12,0,11.08-4.962,11.08-11.08v-42.932C432.991,471.457,428.031,466.497,421.911,466.497z M353.526,470.952
			c-0.004,0.003-0.017,0.007-0.022,0.008c-0.371,0.146-3.709,0.655-6.264,4.087c-2.095,3.736-0.246,11.188-0.685,18.521
			c0,15.02-1.323,27.194-1.323,27.194s-1.323-12.175-1.323-27.194c0.544-7.432-0.988-14.418,2.272-19.313
			c3.596-3.569,6.956-3.207,7.322-3.296C353.51,470.958,353.522,470.955,353.526,470.952c0.013-0.006,0.021-0.014,0.013-0.024
			C353.547,470.938,353.539,470.946,353.526,470.952z M403.275,501.357h-13.632v13.631h-7.021v-13.631h-13.63v-7.02h13.63v-13.631
			h7.021v13.631h13.632V501.357z"/>
	</g>
</g>
<g>
	
		<rect x="409.035" y="424.555" transform="matrix(0.9515 -0.3077 0.3077 0.9515 -110.1453 152.4746)" fill="#FFFFFF" width="38.72" height="1.862"/>
	
		<rect x="404.681" y="411.095" transform="matrix(0.9515 -0.3077 0.3077 0.9515 -106.2142 150.4816)" fill="#FFFFFF" width="38.72" height="1.861"/>
	
		<rect x="416.537" y="411.868" transform="matrix(0.9515 -0.3077 0.3077 0.9515 -108.1799 151.4786)" fill="#FFFFFF" width="19.361" height="13.775"/>
	<g>
		<polygon fill="#FFFFFF" points="397.188,332.473 393.223,348.193 393.234,348.229 411.615,342.284 399.163,331.833 		"/>
	</g>
	<polygon fill="#FFFFFF" points="397.3,332.033 385.664,293.548 398.738,331.568 	"/>
	<g>
		<polygon fill="#FFFFFF" points="393.808,350 395.937,356.583 402.89,354.334 403.148,355.135 396.195,357.385 396.973,359.788 
			403.927,357.539 404.186,358.34 397.231,360.588 398.009,362.992 404.963,360.742 405.222,361.543 398.268,363.792 
			399.045,366.195 405.999,363.947 406.258,364.747 399.304,366.996 400.082,369.4 407.035,367.151 407.294,367.952 
			400.341,370.201 401.117,372.603 408.071,370.354 408.33,371.155 401.376,373.404 402.154,375.807 409.107,373.559 
			409.366,374.359 402.413,376.608 403.189,379.012 410.144,376.763 410.402,377.563 403.448,379.813 404.227,382.215 
			411.18,379.966 411.438,380.767 404.485,383.016 405.262,385.419 412.216,383.169 412.475,383.972 405.521,386.22 
			406.299,388.623 413.252,386.374 413.511,387.175 406.558,389.424 407.335,391.827 414.288,389.579 414.547,390.379 
			407.594,392.628 408.371,395.031 415.324,392.782 415.583,393.583 408.63,395.832 409.406,398.234 416.36,395.986 
			416.619,396.787 409.665,399.036 410.443,401.439 417.396,399.189 417.656,399.991 410.702,402.24 411.479,404.643 
			418.433,402.394 418.691,403.194 411.738,405.443 413.856,411.994 432.278,406.036 412.229,344.043 		"/>
	</g>
</g>
<g>
	<g>
		<path fill="#FFFFFF" d="M142.49,330.105l8.676-0.154l8.675,0.154c0,0,4.044-17.094-8.561-17.304v-0.01
			c-0.039,0-0.074,0.005-0.114,0.005s-0.075-0.005-0.115-0.005v0.01C138.447,313.011,142.49,330.105,142.49,330.105z
			 M151.079,315.139v-0.008c0.03,0,0.057,0.003,0.087,0.003c0.03,0,0.057-0.003,0.086-0.003v0.008
			c9.539,0.159,6.479,13.095,6.479,13.095l-6.565-0.117l-6.564,0.117C144.602,328.233,141.541,315.298,151.079,315.139z"/>
	</g>
	<g>
		<path fill="#FFFFFF" d="M184.746,465.949l1.223-0.244c-1.678-8.393-11.729-15.264-29.064-19.871
			c-8.705-2.314-5.136-29.249-5.1-29.519l-1.235,0.004c-0.158,1.147-3.747,28.125,6.014,30.72
			C173.428,451.515,183.167,458.055,184.746,465.949L184.746,465.949z"/>
	</g>
	<g>
		<path fill="#FFFFFF" d="M128.457,368.182c-4.127,22.599-5.305,38.714,21.42,44.609v2.947h1.006h0.566h1.005v-2.947
			c8.4-1.854,14.042-4.717,17.703-8.472h-2.725v-1h3.635c1.343-1.58,2.374-3.302,3.143-5.163h-6.778v-1h7.158
			c0.578-1.625,0.972-3.347,1.216-5.164h-8.374v-0.999h8.491c0.169-1.649,0.223-3.371,0.182-5.163h-8.672v-1h8.642
			c-0.068-1.663-0.212-3.385-0.412-5.163h-8.229v-1h8.112c-0.206-1.674-0.458-3.395-0.745-5.163h-7.367v-1h7.202
			c-0.236-1.414-0.492-2.855-0.76-4.325c-0.052-0.282-0.088-0.559-0.135-0.838h-6.307v-1h6.146
			c-0.254-1.758-0.404-3.479-0.473-5.164h-5.673v-1h5.636c-0.038-1.771,0.021-3.492,0.152-5.163h-5.788v-1h5.871
			c0.174-1.788,0.43-3.514,0.75-5.163h-6.621v-1h6.832c0.388-1.82,0.848-3.547,1.352-5.163h-8.183v-0.999h8.507
			c0.628-1.892,1.304-3.62,1.979-5.163h-10.487v-1h10.934c2.159-4.699,4.154-7.438,4.154-7.438h-24.564l-6.508-0.181v-0.016
			l-0.284,0.007l-0.283-0.007v0.016l-6.508,0.181H119.81C119.81,328.093,132.584,345.582,128.457,368.182z M131.456,372.082
			c4.455-20.504-2.427-37.005-4.193-40.319c-0.253-0.4-0.402-0.612-0.397-0.607c0.013-0.051,0.161,0.165,0.397,0.607
			c0.854,1.357,2.941,4.99,4.673,10.707c2.355,7.308,3.4,18.315,1.168,29.843c-1.837,11.403,0.122,22.171,4.583,28.355
			c4.361,6.245,9.08,8.183,8.927,8.283c0.155-0.118-4.74-1.608-9.603-7.799C132.042,395.041,129.553,383.747,131.456,372.082z"/>
	</g>
</g>
<g>
	<g>
		<path fill="#FFFFFF" d="M230.512,505.767l-8.794-0.246l0.063-2.24c0.154-5.53-4.671-10.15-10.777-10.32l-53.446-1.492
			c-6.106-0.169-11.182,4.176-11.336,9.704l-0.698,25.028c-0.142,5.091,3.941,9.402,9.355,10.189
			c0.306-6.968,6.14-12.428,13.136-12.232c7.027,0.195,12.569,6.022,12.436,13.037l12.838,0.357
			c0.326,0.055,0.657,0.096,0.996,0.105l8.676,0.241c0.218-7.047,6.097-12.598,13.15-12.399c7.053,0.195,12.613,6.063,12.438,13.112
			l1.047,0.029c4.035,0.113,7.397-3.067,7.51-7.102l0.509-18.264C237.726,509.241,234.546,505.878,230.512,505.767z
			 M177.487,512.022l-6.439-0.179l-0.18,6.439l-3.864-0.108l0.18-6.438l-6.438-0.181l0.108-3.862l6.438,0.18l0.18-6.44l3.864,0.107
			l-0.18,6.439l6.439,0.181L177.487,512.022z M206.953,505.718l0.103-10.963c0,0,12.622-1.071,12.276,11.309L206.953,505.718z"/>
		<path fill="#FFFFFF" d="M216.066,527.032c-6.219-0.173-11.403,4.729-11.577,10.948s4.729,11.403,10.949,11.578
			c6.219,0.173,11.403-4.73,11.576-10.948C227.188,532.389,222.286,527.206,216.066,527.032z M215.588,544.204
			c-3.264-0.09-5.836-2.811-5.745-6.074c0.091-3.262,2.811-5.834,6.074-5.743c3.262,0.09,5.834,2.811,5.744,6.074
			C221.569,541.723,218.85,544.294,215.588,544.204z"/>
		<path fill="#FFFFFF" d="M167.969,525.69c-6.219-0.173-11.402,4.729-11.576,10.949c-0.173,6.221,4.729,11.404,10.949,11.577
			c6.221,0.174,11.404-4.729,11.578-10.949C179.093,531.047,174.19,525.864,167.969,525.69z M167.491,542.863
			c-3.263-0.091-5.835-2.812-5.744-6.074s2.81-5.835,6.073-5.744c3.264,0.092,5.835,2.811,5.745,6.074
			S170.754,542.954,167.491,542.863z"/>
	</g>
	<g>
		<path fill="#FFFFFF" d="M196.252,482.434c-2.668-0.075-4.892,2.028-4.966,4.696l-0.057,2.034c-0.018,0.637,0.09,1.244,0.298,1.806
			l8.967,0.25c0.238-0.55,0.381-1.151,0.399-1.785l0.057-2.034C201.024,484.732,198.92,482.508,196.252,482.434z M196.232,482.938
			c0,0,4.083,0.716,3.974,4.633C200.206,487.571,198.92,484.06,196.232,482.938z"/>
	</g>
</g>
<g>
	<g>
		<path fill="#FFFFFF" d="M313.554,534.251l-12.854-0.085v-0.04l-3.059,0.021l-3.059-0.021v0.04l-12.854,0.085
			c0,0,0.374,6.863-5.367,6.863v39.814h18.222h6.117h18.222v-39.814C313.18,541.115,313.554,534.251,313.554,534.251z
			 M296.37,565.185H277.7v-16.64h39.67v16.64H296.37"/>
	</g>
	<g>
		<path fill="#FFFFFF" d="M278.568,518.449v14.904h38.145v-15.156L278.568,518.449z M279.473,532.049v-12.572
			c2.794,11.641,18.626,12.572,18.626,12.572H279.473z"/>
	</g>
</g>
<g>
	<g>
		<path fill="#FFFFFF" d="M393.49,283.286l-0.262-2.992c4.74-0.416,6.645-4.389,9.279-9.885c4.184-8.732,9.916-20.693,31.758-22.91
			c21.164-2.15,34.111,9.85,44.51,19.492c6.971,6.463,12.99,12.045,19.732,12.045c5.422,0,9.242-1.361,11.357-4.049
			c2.863-3.637,1.717-8.568,1.705-8.617l2.92-0.705c0.063,0.26,1.49,6.412-2.264,11.182c-2.715,3.445-7.33,5.193-13.719,5.193
			c-7.922,0-14.342-5.951-21.775-12.846c-10.473-9.711-22.34-20.711-42.162-18.707c-20.166,2.047-25.26,12.678-29.354,21.219
			C402.502,277.37,399.939,282.721,393.49,283.286L393.49,283.286z"/>
	</g>
	<g>
		<path fill="#FFFFFF" d="M502.518,255.346l-2.002-0.035c0.24-13.605-10.58-20.152-22.033-27.082
			c-10.805-6.536-21.973-13.294-21.973-26.494c0-6.477,2.188-11.889,6.504-16.088c10.451-10.17,29.605-9.762,30.416-9.744
			l-0.055,2.003c-0.182-0.012-19.127-0.401-28.971,9.181c-3.91,3.809-5.893,8.736-5.893,14.648c0,12.07,10.203,18.244,21.006,24.781
			C490.955,233.434,502.779,240.588,502.518,255.346L502.518,255.346z"/>
	</g>
	<path fill="#FFFFFF" d="M497.621,180.841c3.916,0,7.332-1.962,7.523-3.876h0.018c0.002-0.037-0.008-0.072-0.008-0.105
		c0-0.037,0.01-0.072,0.008-0.107h-0.018c-0.191-1.916-3.607-3.877-7.523-3.877c-3.646,0-4.992,3.254-5.23,3.92h-0.043
		c0,0,0.008,0.025,0.02,0.064c-0.012,0.037-0.02,0.063-0.02,0.063h0.043C492.629,177.588,493.975,180.841,497.621,180.841z"/>
	<g>
		<path fill="#FFFFFF" d="M524.049,255.346c-0.26-14.758,11.564-21.912,23-28.83c10.803-6.537,21.006-12.711,21.006-24.781
			c0-5.915-1.984-10.844-5.898-14.652c-9.852-9.586-28.777-9.183-28.965-9.177l-0.055-2.003c0.814-0.019,19.965-0.424,30.416,9.744
			c4.316,4.199,6.504,9.611,6.504,16.088c0,13.2-11.17,19.958-21.971,26.494c-11.455,6.93-22.275,13.477-22.033,27.082
			L524.049,255.346L524.049,255.346z"/>
	</g>
	<path fill="#FFFFFF" d="M528.945,180.841c-3.916,0-7.332-1.962-7.523-3.876h-0.018c-0.002-0.037,0.008-0.072,0.008-0.105
		c0-0.037-0.01-0.072-0.008-0.107h0.018c0.191-1.916,3.607-3.877,7.523-3.877c3.646,0,4.992,3.254,5.23,3.92h0.045
		c0,0-0.01,0.025-0.021,0.064c0.012,0.037,0.021,0.063,0.021,0.063h-0.045C533.938,177.588,532.592,180.841,528.945,180.841z"/>
	<path fill="#FFFFFF" d="M499.678,253.917c0,0-0.334,4.84,2.672,7.846c3.002,3.004,11.264,6.008,11.264,6.008v-15.855
		L499.678,253.917z"/>
	<path fill="#FFFFFF" d="M527.52,253.917c0,0,0.334,4.84-2.67,7.846c-3.004,3.004-11.266,6.008-11.266,6.008v-15.855L527.52,253.917
		z"/>
	<g>
		<path fill="#FFFFFF" d="M383.234,292.598c-7.012,0-12.717-5.705-12.717-12.715c0-7.014,5.705-12.717,12.717-12.717
			c7.01,0,12.715,5.703,12.715,12.717C395.949,286.893,390.244,292.598,383.234,292.598L383.234,292.598z M383.234,270.17
			c-5.355,0-9.713,4.357-9.713,9.713c0,5.354,4.357,9.711,9.713,9.711c5.354,0,9.711-4.357,9.711-9.711
			C392.945,274.528,388.588,270.17,383.234,270.17L383.234,270.17z"/>
	</g>
	<g>
		<path fill="#FFFFFF" d="M383.234,288.196c-4.586,0-8.314-3.73-8.314-8.314s3.729-8.313,8.314-8.313
			c4.584,0,8.313,3.729,8.313,8.313S387.818,288.196,383.234,288.196L383.234,288.196z M383.234,274.573
			c-2.928,0-5.311,2.381-5.311,5.309s2.383,5.311,5.311,5.311c2.926,0,5.307-2.383,5.307-5.311S386.16,274.573,383.234,274.573
			L383.234,274.573z"/>
	</g>
</g>
<g>
	<g>
		<path fill="#FFFFFF" d="M55.929,585.199l-25.285,44.969c-1.961,3.488-1.309,7.574,1.459,9.131c2.761,1.553,6.59-0.014,8.552-3.502
			l25.285-44.969c0.094-0.167,0.109-0.338,0.189-0.503l-9.865-5.548C56.162,584.93,56.023,585.032,55.929,585.199z"/>
	</g>
	<g>
		<path fill="#FFFFFF" d="M92.141,564.681c1.729-3.073,1.141-6.816-1.192-9.227c3.56-5.396,25.614-39.746,14.638-46.482l0.023-0.041
			c-0.036-0.02-0.073-0.013-0.11-0.033c-0.03-0.018-0.045-0.054-0.081-0.074l-0.023,0.041c-11.46-5.879-29.35,30.816-32.109,36.659
			c-3.27-0.737-6.771,0.705-8.499,3.778c-2.105,3.743-0.774,8.49,2.971,10.596L67.94,560c-0.523,0.492-0.986,1.063-1.359,1.727
			l-39.261,69.826c-2.174,3.865-0.799,8.771,3.068,10.944c3.867,2.175,8.77,0.799,10.943-3.066l39.262-69.826
			c0.373-0.663,0.621-1.355,0.771-2.057l0.177,0.1C85.289,569.754,90.036,568.425,92.141,564.681z M103.987,509.732
			c0,0-12.505,9.15-28.28,36.778l-0.047-0.027C77.883,541.775,93.347,509.85,103.987,509.732z M80.308,567.256l-39.29,69.876
			c-2.177,3.873-6.539,5.552-9.728,3.759c-3.201-1.8-4.021-6.393-1.843-10.265l39.29-69.877c0.043-0.077,0.094-0.148,0.139-0.224
			l11.552,6.495C80.386,567.1,80.351,567.178,80.308,567.256z"/>
	</g>
</g>
</svg>
